<svg
	width="240px"
	height="100px"
	viewBox="0 0 240 100"
	version="1.1"
	xmlns="http://www.w3.org/2000/svg"
>
	<g>
		<!-- B -->
		<path
			fill="#001aa1"
			d="M25.45,30.94 c0-3.88-1.66-6.69-4.55-8.33l-3.18-1.77 c3.71-1.31,6.14-4.66,6.14-9.58 c0-5.72-3.18-10.19-13.02-10.19 C7.25,1.07,2.3,1.24,0,1.3v41.12 c2.42,0.12,7.25,0.24,10.78,0.24 C19.15,42.66,25.45,39.18,25.45,30.94 z M3.24,4.31 c1.65-0.06,4.95-0.18,7.48-0.18 c6.78,0,9.89,2.77,9.89,7.78 c0,3.73-2.31,6.33-5.57,7.45 L3.24,12.7V4.31z M3.24,30.25 V15.87l15.23,8.56 c2.44,1.38,3.75,3.45,3.75,6.32 c0,5.95-4.25,8.84-11.32,8.84 c-2.59,0-6-0.18-7.66-0.24V30.25 z"
		/>
		<!-- A -->
		<path 
			fill="#001aa1"
			d="M46.24,28.46 h19.8l6,14.02 h3.48L57.56,0.89 H54.9l-17.97,41.6 h3.29L46.24,28.46z M56.13,5.36l8.54,20.03 H47.54L56.13,5.36 z"
		/>
		<!-- L -->
		<polygon
			fill="#001aa1"
			points="92.42,0.87 89.17,0.87 89.17,42.48 152.16,42.48 152.16,39.43 92.42,39.43"
		/>
		<!-- S -->
		<path
			fill="#001aa1"
			d="M169.78,11.02 c0-4.36,3.36-7.25,8.78-7.25 c3.77,0,6.83,1.18,9.19,3.54l1.77-2.42 c-2.3-2.53-6.49-4.18-11.08-4.18 c-7.67,0-12.08,4.54-12.08,10.31 c0,13.78,21.33,9.54,21.33,21.21 c0,5.06-4.72,7.71-9.78,7.71 c-3.71,0-8.25-1.83-10.67-5.12l-1.95,2.24 c2.07,3.71,7.78,5.95,12.67,5.95 c7.31,0,13.15-4.24,13.15-10.84 C191.1,17.86,169.78,22.57,169.78,11.02 z"
		/>
		<!-- A -->
		<path
			fill="#001aa1"
			d="M222.03,0.89 h-2.66l-17.97,41.6 h3.3l6.01-14.02 h19.8l6,14.02 H240L222.03,0.89 z M212.01,25.4l8.6-20.03 l8.54,20.03H212.01 z"/>

		<rect
			fill="#001aa1"
			y="60.61"
			width="23.08"
			height="3.06"
		/>
	</g>

	<g>
		<!-- A -->
		<path
			fill="#001aa1"
			d="M8.35,81.76 h1.14l7.69,17.81 h-1.49l-2.57-6 H4.65l-2.57,6 H0.66L8.35,81.76 z M5.2,92.26 h7.34l-3.66-8.58 L5.2,92.26 z"
		/>
		<!-- R -->
		<path
			fill="#001aa1"
			d="M22.02,99.57 V81.92 c0.98,0,3.73-0.05,4.24-0.05 c4.82,0,6.18,2.4,6.18,5.09 c0,2.52-1.82,4.41-4.19,4.92	l6.18,7.69h-1.72 l-5.88-7.42H23.4 v7.42H22.02 z M23.4,83.23 v7.62h3.05 c2.24,0,4.51-1.54,4.51-3.88 c0-2.14-1.21-3.78-4.79-3.78 C25.65,83.18,24.24,83.2,23.4,83.23 z"
		/>
		<!-- Q -->
		<path
			fill="#001aa1"
			d="M46.2,81.69 c5.02,0,8.85,3.78,8.85,9.05 c0,2.75-1.08,5.12-2.82,6.73 l1.77,2.09h-1.66l-1.08-1.29 c-1.41,0.96-3.15,1.51-5.04,1.51 c-5.02,0-8.85-3.78-8.85-9.05 C37.35,85.62,41.11,81.69,46.2,81.69 z M46.2,98.48	c1.59,0,3-0.45,4.16-1.24 l-1.56-1.89l0.93-0.83l1.61,1.92 c1.41-1.41,2.24-3.4,2.24-5.7 c0-4.46-3.23-7.74-7.39-7.74 c-4.19,0-7.39,3.28-7.39,7.74 C38.81,95.16,42.04,98.48,46.2,98.48 z"
		/>
		<!-- U -->
		<path
			fill="#001aa1"
			d="M74.31,92.18 c0,5.4-3.13,7.59-6.68,7.59 c-4.11,0-7.16-2.6-7.16-7.77 V81.92h1.39v9.84 c0,4.29,2.29,6.71,5.78,6.71 c3.1,0,5.3-2.07,5.3-6.58 v-9.96h1.39V92.18 z"
		/>
		<!-- I -->
		<path
			fill="#001aa1"
			d="M81.77,81.92 h1.39v17.65 h-1.39V81.92 z"
		/>
		<!-- T -->
		<path
			fill="#001aa1"
			d="M88.33,81.92 h14.45v1.31 h-6.53v16.34 h-1.39V83.23 h-6.53V81.92 z"
		/>
		<!-- E -->
		<path
			fill="#001aa1"
			d="M107.34,81.92 h9.76v1.31 h-8.37v6.73 h7.62v1.31 h-7.62v6.99 h8.63v1.31 h-10.01V81.92 z"
		/>
		<!-- T -->
		<path
			fill="#001aa1"
			d="M120.8,81.92 h14.45v1.31 h-6.53v16.34 h-1.39V83.23 h-6.53V81.92 z"
		/>
		<!-- U -->
		<path
			fill="#001aa1"
			d="M153.41,92.18 c0,5.4-3.13,7.59-6.68,7.59 c-4.11,0-7.16-2.6-7.16-7.77 V81.92h1.39v9.84 c0,4.29,2.29,6.71,5.78,6.71 c3.1,0,5.3-2.07,5.3-6.58 v-9.96h1.39V92.18 z"
		/>
		<!-- R -->
		<path
			fill="#001aa1"
			d="M160.26,99.57 V81.92 c0.98,0,3.73-0.05,4.24-0.05 c4.82,0,6.18,2.4,6.18,5.09 c0,2.52-1.82,4.41-4.19,4.92 l6.18,7.69h-1.72 l-5.88-7.42h-3.43 v7.42H160.26 z M161.65,83.23 v7.62h3.05 c2.24,0,4.51-1.54,4.51-3.88 c0-2.14-1.21-3.78-4.79-3.78 C163.89,83.18,162.48,83.2,161.65,83.23 z"
		/>
		<!-- A -->
		<path
			fill="#001aa1"
			d="M182.68,81.76 h1.14l7.69,17.81 h-1.49l-2.57-6 h-8.47l-2.57,6 h-1.41L182.68,81.76 z M179.52,92.26 h7.34 l-3.66-8.58 L179.52,92.26 z"/>
	</g>
</svg>
